<?xml version="1.0" standalone="no"?>
<!DOCTYPE svg PUBLIC "-//W3C//DTD SVG 20010904//EN"
 "http://www.w3.org/TR/2001/REC-SVG-20010904/DTD/svg10.dtd">
<svg version="1.0" xmlns="http://www.w3.org/2000/svg"
 width="300.000000pt" height="300.000000pt" viewBox="0 0 300.000000 300.000000"
 preserveAspectRatio="xMidYMid meet">
<metadata>
Created by potrace 1.10, written by Peter Selinger 2001-2011
</metadata>
<g transform="translate(0.000000,300.000000) scale(0.100000,-0.100000)"
fill="#000000" stroke="none">
<path d="M403 2559 c-10 -10 -13 -88 -13 -321 l0 -308 155 0 155 0 0 177 0
176 95 -6 c168 -11 269 -48 363 -132 186 -168 189 -576 5 -746 -86 -79 -234
-128 -385 -129 l-78 0 0 175 0 175 -155 0 -155 0 2 -317 3 -318 195 -3 c107
-2 240 2 294 8 241 28 440 121 559 264 122 148 178 362 157 605 -20 223 -75
357 -200 481 -111 111 -242 172 -445 206 -126 21 -536 31 -552 13z"/>
<path d="M1765 2538 c-3 -7 -4 -227 -3 -488 l3 -475 148 -3 147 -3 0 491 0
490 -145 0 c-107 0 -147 -3 -150 -12z"/>
<path d="M1762 1128 l3 -143 435 0 435 0 0 140 0 140 -438 3 -438 2 3 -142z"/>
<path d="M410 595 l0 -65 30 0 c28 0 30 3 30 35 0 33 2 35 34 35 53 0 86 -38
86 -98 0 -58 -27 -89 -84 -99 -36 -6 -36 -5 -36 31 0 33 -2 36 -30 36 l-30 0
0 -66 0 -67 69 6 c124 10 171 55 171 160 0 106 -58 157 -178 157 l-62 0 0 -65z"/>
<path d="M781 639 c-44 -114 -111 -290 -111 -294 0 -3 13 -5 29 -5 27 0 31 5
57 78 15 42 30 81 34 85 4 4 21 -29 37 -75 29 -79 32 -83 63 -86 24 -3 31 0
27 10 -3 7 -30 78 -62 158 -31 79 -58 146 -60 149 -3 2 -9 -7 -14 -20z"/>
<path d="M930 630 l0 -30 70 0 c56 0 71 -3 79 -18 6 -11 6 -24 0 -35 -8 -14
-24 -17 -79 -17 l-70 0 0 -95 0 -95 30 0 30 0 0 65 c0 90 23 90 68 0 29 -58
35 -65 62 -65 16 0 30 2 30 4 0 2 -13 33 -30 67 l-30 63 27 29 c39 40 39 100
0 133 -25 21 -38 24 -108 24 l-79 0 0 -30z"/>
<path d="M1160 513 l0 -147 46 44 c51 51 38 55 109 -34 27 -33 35 -37 68 -34
l37 3 -66 78 -65 77 60 73 c34 41 61 77 61 80 0 4 -15 7 -33 7 -29 0 -41 -9
-93 -72 l-59 -73 -3 73 -3 72 -29 0 -30 0 0 -147z"/>
<path d="M1530 560 l0 -100 30 0 30 0 0 100 0 100 -30 0 -30 0 0 -100z"/>
<path d="M1831 639 c-5 -13 -32 -83 -60 -156 -28 -73 -51 -135 -51 -138 0 -3
13 -5 29 -5 27 0 31 5 57 78 15 42 30 81 34 85 4 4 21 -29 37 -75 29 -79 32
-83 63 -86 24 -3 31 0 27 10 -3 7 -30 78 -62 158 -31 79 -58 146 -60 149 -3 2
-9 -7 -14 -20z"/>
<path d="M2002 628 c102 -138 98 -130 98 -212 l0 -76 30 0 30 0 0 76 c0 72 2
80 35 125 19 27 35 51 35 54 0 3 -16 5 -35 5 -24 0 -39 -6 -47 -20 -7 -11 -16
-20 -19 -20 -3 0 -21 22 -40 50 -31 45 -37 50 -73 50 l-38 0 24 -32z"/>
<path d="M2250 500 l0 -160 75 0 75 0 0 30 c0 29 -2 30 -45 30 -45 0 -45 0
-45 35 l0 35 65 0 65 0 0 30 0 30 -65 0 -65 0 0 35 c0 35 0 35 45 35 43 0 45
1 45 30 l0 30 -75 0 -75 0 0 -160z"/>
<path d="M2452 633 c3 -27 5 -28 68 -31 72 -3 97 -20 79 -53 -8 -16 -22 -19
-79 -19 l-70 0 0 -95 0 -95 30 0 30 0 0 65 c0 56 2 65 18 65 13 0 28 -19 48
-62 26 -56 32 -63 62 -66 17 -2 32 -1 32 3 0 3 -14 33 -31 66 l-30 61 28 30
c39 41 39 100 0 134 -25 21 -38 24 -108 24 l-80 0 3 -27z"/>
<path d="M1530 370 l0 -30 90 0 90 0 0 30 0 30 -90 0 -90 0 0 -30z"/>
</g>
</svg>
